<?xml version="1.0" encoding="iso-8859-1"?>
<!-- Generator: Adobe Illustrator 19.0.0, SVG Export Plug-In . SVG Version: 6.00 Build 0)  -->
<svg version="1.1" id="Layer_1" xmlns="http://www.w3.org/2000/svg" xmlns:xlink="http://www.w3.org/1999/xlink" x="0px" y="0px"
	 viewBox="0 0 473.935 473.935" style="enable-background:new 0 0 473.935 473.935;" xml:space="preserve">
<circle style="fill:#344E5D;" cx="236.967" cy="236.967" r="236.967"/>
<path style="fill:#717171;" d="M236.956,356.435c0.004,0,0.007,0,0.011,0c-22.683-34.26-35.921-75.318-35.921-119.483
	c0-44.161,13.238-85.212,35.921-119.475c-0.004,0-0.007,0-0.011,0c-65.986,0-119.479,53.493-119.479,119.475
	C117.477,302.939,170.97,356.435,236.956,356.435z"/>
<radialGradient id="SVGID_1_" cx="24.6327" cy="528.3893" r="26.9326" gradientTransform="matrix(3.7418 0 0 -3.7418 186.5668 2214.0767)" gradientUnits="userSpaceOnUse">
	<stop  offset="0.818" style="stop-color:#D8D5DB"/>
	<stop  offset="1" style="stop-color:#D8D5DB"/>
</radialGradient>
<path style="fill:url(#SVGID_1_);" d="M236.964,356.435c65.979-0.007,119.468-53.5,119.468-119.483
	c0-65.979-53.489-119.468-119.468-119.475c-22.683,34.26-35.921,75.315-35.921,119.475
	C201.046,281.117,214.285,322.175,236.964,356.435z"/>
<g>
</g>
<g>
</g>
<g>
</g>
<g>
</g>
<g>
</g>
<g>
</g>
<g>
</g>
<g>
</g>
<g>
</g>
<g>
</g>
<g>
</g>
<g>
</g>
<g>
</g>
<g>
</g>
<g>
</g>
</svg>
